<svg width="122" height="16" viewBox="0 0 122 16" fill="none" xmlns="http://www.w3.org/2000/svg">
<g clip-path="url(#clip0)">
<path d="M1.99766 1.00002V7.85716L7.1345 7.7143V8.42859L1.99766 8.28573V15.8572H0V0.428589H8.27602V1.14287L1.99766 1.00002Z" fill="#89755C"/>
<path d="M23.544 9.42857H18.1218L15.5534 15.8571H14.6973L21.4037 0L28.3955 15.8571H26.3979L23.544 9.42857ZM23.2587 8.85714L20.6902 2.85714L18.2645 8.85714H23.2587Z" fill="#89755C"/>
<path d="M46.3737 1.14287L41.3795 0.85716V15.8572H39.3818V0.85716L34.3877 1.14287V0.428589H46.3737V1.14287Z" fill="#89755C"/>
<path d="M55.3633 9.57145V0.428589H57.3609V9.57145C57.3609 13.1429 59.2159 15.1429 62.3551 15.1429C65.3516 15.1429 67.2066 13 67.2066 9.57145V0.428589H67.92L67.7773 9.57145C67.7773 13.5714 65.4943 16 61.927 16C57.789 16 55.3633 13.7143 55.3633 9.57145Z" fill="#89755C"/>
<path d="M79.7637 15.8572V0.428589H81.7613V15.8572H79.7637V15.8572Z" fill="#89755C"/>
<path d="M103.879 1.14287L98.8844 0.85716V15.8572H96.8867V0.85716L91.8926 1.14287V0.428589H103.879V1.14287Z" fill="#89755C"/>
<path d="M122 15.1429V15.8572H113.296V0.428589H121.572V1.14287L115.294 0.85716V7.85716L120.43 7.7143V8.42859H115.294V15.5714L122 15.1429Z" fill="#89755C"/>
</g>
<defs>
<clipPath id="clip0">
<rect width="122" height="16" fill="white"/>
</clipPath>
</defs>
</svg>
